<?xml version="1.0" encoding="UTF-8" standalone="no"?>
<!-- Created with Inkscape (http://www.inkscape.org/) -->

<svg width="65mm" height="22mm" viewBox="0 0 65 22" version="1.1" id="svg5" xml:space="preserve" inkscape:version="1.2.2 (732a01da63, 2022-12-09)" sodipodi:docname="logo_tortosa.svg" xmlns:inkscape="http://www.inkscape.org/namespaces/inkscape" xmlns:sodipodi="http://sodipodi.sourceforge.net/DTD/sodipodi-0.dtd" xmlns="http://www.w3.org/2000/svg" xmlns:svg="http://www.w3.org/2000/svg"><sodipodi:namedview id="namedview7" pagecolor="#ffffff" bordercolor="#000000" borderopacity="0.1" inkscape:showpageshadow="2" inkscape:pageopacity="0.0" inkscape:pagecheckerboard="0" inkscape:deskcolor="#d1d1d1" inkscape:document-units="mm" showgrid="false" inkscape:zoom="1.829812" inkscape:cx="132.25402" inkscape:cy="347.57669" inkscape:window-width="3840" inkscape:window-height="2066" inkscape:window-x="-12" inkscape:window-y="-12" inkscape:window-maximized="1" inkscape:current-layer="layer1"></sodipodi:namedview><defs id="defs2"></defs><g inkscape:label="Capa 1" inkscape:groupmode="layer" id="layer1"><g id="g166" transform="matrix(0.36119863,0,0,0.29173128,-2.3527493,-7.2473183)"><path style="fill: #fff; stroke-width: .110745px" d="m 25.411554,95.045951 v -1.29002 h 21.748917 21.748917 v 1.29002 1.29001 H 47.160471 25.411554 Z m 2.470247,-5.16007 v -1.29002 H 47.10677 66.331738 v 1.29002 1.29001 H 47.10677 27.881801 Z M 147.2592,86.725461 c -1.48253,-0.4693 -2.35703,-1.63 -2.35703,-3.12842 0,-0.88525 0.24545,-1.51607 0.85091,-2.18686 1.22089,-1.35264 3.50883,-1.39149 4.81729,-0.0818 0.62112,0.6217 0.8543,1.17742 0.90678,2.16117 0.0432,0.81043 0.0251,0.9001 -0.31547,1.55545 -0.74566,1.43503 -2.4116,2.15241 -3.90248,1.68047 z m 1.85696,-1.1298 c 1.38654,-0.71386 1.71771,-2.33113 0.70672,-3.45122 -1.35741,-1.50388 -3.7988,-0.55671 -3.7988,1.47379 0,1.26163 0.90667,2.16798 2.17916,2.17838 0.30296,0.003 0.67826,-0.0801 0.91292,-0.20095 z m 3.45944,-1.872 v -3.16192 l 0.53231,-0.10535 0.53232,-0.10535 0.0315,0.64889 0.0316,0.64889 0.30246,-0.45872 c 0.35502,-0.53844 0.98226,-0.86602 1.66487,-0.86949 0.43108,-0.002 0.45862,0.0147 0.39149,0.23952 -0.17404,0.583 -0.43411,0.88462 -0.81635,0.94681 -0.51485,0.0838 -0.99131,0.44379 -1.23387,0.93234 -0.16905,0.34049 -0.20656,0.70935 -0.23477,2.30829 -0.0371,2.10235 0.0294,1.93016 -0.79879,2.07 l -0.40276,0.068 z m 6.27964,3.03799 c -0.45072,-0.13122 -0.99136,-0.69019 -1.12164,-1.15966 -0.0599,-0.21584 -0.10918,-1.22691 -0.1095,-2.24683 l -6e-4,-1.8544 h -0.42961 c -0.48157,0 -0.49566,-0.0305 -0.26706,-0.57813 0.12502,-0.29949 0.2242,-0.38938 0.4296,-0.38938 0.25889,0 0.26707,-0.0229 0.26707,-0.74746 v -0.74745 l 0.40276,-0.11196 c 0.77444,-0.21527 0.77866,-0.21122 0.77866,0.74686 v 0.86001 h 0.80552 0.80551 v 0.48376 0.48375 h -0.80551 -0.80552 v 1.97212 c 0,2.36996 0.006,2.38306 1.14239,2.37958 l 0.68964,-0.002 -0.0648,0.32462 c -0.14291,0.71571 -0.12693,0.70156 -0.78099,0.69117 -0.33567,-0.005 -0.75684,-0.0524 -0.93591,-0.10449 z m 4.38888,-0.0782 c -0.72389,-0.25896 -1.27357,-0.68718 -1.65514,-1.28942 -0.45318,-0.71523 -0.56102,-1.14195 -0.50542,-1.9998 0.0809,-1.2479 0.65703,-2.11592 1.76765,-2.66318 1.69482,-0.83514 3.69348,-0.17119 4.51299,1.49921 0.41695,0.84983 0.4205,1.97259 0.009,2.76433 -0.78019,1.50026 -2.58848,2.23992 -4.12885,1.68886 z m 2.12228,-1.1306 c 0.29456,-0.15433 0.60909,-0.44872 0.8327,-0.77939 0.33498,-0.49536 0.3566,-0.58025 0.31895,-1.25238 -0.0329,-0.58762 -0.0994,-0.8046 -0.35934,-1.17294 -0.81714,-1.15784 -2.46957,-1.25625 -3.41964,-0.20366 -0.60816,0.67379 -0.75841,1.54008 -0.40106,2.31261 0.54974,1.18849 1.91119,1.6811 3.02839,1.09576 z m 4.15166,1.17541 c -0.42533,-0.15801 -1.15435,-0.66657 -1.15435,-0.80526 0,-0.0451 0.14675,-0.22265 0.32611,-0.39464 0.23353,-0.22394 0.36647,-0.28306 0.46824,-0.20824 0.54876,0.40341 0.72783,0.49715 1.04697,0.54809 1.00469,0.16036 1.63583,-0.80332 0.94687,-1.44578 -0.11906,-0.11102 -0.51721,-0.29014 -0.88477,-0.39806 -1.46724,-0.43076 -1.82671,-0.76663 -1.82671,-1.70679 0,-1.18066 0.79971,-1.94785 2.01763,-1.93562 0.65911,0.007 1.17646,0.19082 1.65491,0.58924 l 0.25869,0.21542 -0.35976,0.37153 -0.35977,0.37153 -0.23079,-0.21701 c -0.50015,-0.4703 -1.5197,-0.46275 -1.77416,0.0131 -0.32353,0.60507 0.14504,1.13273 1.21963,1.37343 1.19689,0.2681 1.72688,0.89617 1.65853,1.96546 -0.0463,0.72453 -0.38856,1.24677 -1.01406,1.54736 -0.52578,0.25268 -1.47662,0.30811 -1.99321,0.11619 z m 5.14854,0.0383 c -0.50625,-0.1521 -1.05415,-0.64744 -1.27908,-1.1564 -0.31305,-0.70836 -0.23884,-1.7887 0.1587,-2.31038 0.46672,-0.61246 0.96421,-0.85896 1.83878,-0.91106 0.65583,-0.0391 0.83837,-0.008 1.27551,0.21738 l 0.51016,0.26298 v -0.40939 c 0,-0.27677 -0.0832,-0.50624 -0.2569,-0.70834 -0.2306,-0.26834 -0.33783,-0.30257 -1.04717,-0.33429 -0.45962,-0.0206 -1.02844,0.0285 -1.35951,0.11735 l -0.56925,0.1527 0.0728,-0.33503 c 0.16614,-0.76495 0.18483,-0.78077 1.08871,-0.92151 1.38974,-0.21639 2.30814,0.036 2.87022,0.78885 0.20686,0.27704 0.22357,0.46615 0.25373,2.8703 0.0256,2.04054 0.003,2.58267 -0.1074,2.61689 -0.0768,0.0237 -0.29677,0.0703 -0.48875,0.10352 -0.3398,0.0588 -0.34905,0.0502 -0.34905,-0.32275 v -0.38314 l -0.32555,0.27418 c -0.53627,0.45166 -1.51906,0.61853 -2.28593,0.38813 z m 1.86317,-1.12877 c 0.56307,-0.29144 0.79926,-1.07214 0.50357,-1.66446 -0.42199,-0.84534 -2.2067,-0.83864 -2.66046,0.01 -0.2862,0.53527 0.0456,1.4904 0.59605,1.71591 0.35694,0.14623 1.2257,0.11203 1.56084,-0.0614 z m -34.69437,-2.57822 v -3.7088 h -1.06888 -1.06888 l 0.17913,-0.48375 0.17912,-0.48376 h 2.44709 2.44708 v 0.48376 0.48375 h -0.96662 -0.96662 v 3.64251 3.64252 l -0.24166,0.0648 c -0.13291,0.0357 -0.39873,0.0655 -0.59071,0.0663 l -0.34905,0.002 z m -97.198878,2.88582 c -5.982806,-0.57386 -11.131029,-2.46447 -15.707551,-5.76835 l -1.04717,-0.75597 v -8.03455 c 0,-8.78921 0.0036,-8.84794 0.633785,-10.47935 0.450947,-1.16732 1.078123,-2.10125 2.052707,-3.05669 4.34743,-4.26205 11.526235,-3.04421 14.258041,2.41878 0.616792,1.23344 0.798779,2.01495 0.857396,3.68192 l 0.05387,1.5319 h -1.248651 -1.248651 v -1.05243 c 0,-0.58653 -0.07203,-1.33607 -0.162717,-1.69315 -0.839597,-3.30601 -4.056793,-5.42359 -7.355427,-4.8414 -2.000956,0.35316 -3.737842,1.64008 -4.613571,3.41837 -0.753969,1.53104 -0.752574,1.51328 -0.754667,9.60354 l -0.0019,7.20871 0.993469,0.6523 c 3.614733,2.37338 7.324327,3.78328 11.733675,4.45958 1.979586,0.30363 5.668068,0.32854 7.679248,0.0519 3.063192,-0.4214 6.0004,-1.30125 8.686878,-2.60218 0.908625,-0.44 1.67124,-0.80001 1.6947,-0.80001 0.02346,0 0.02917,0.64022 0.01269,1.42271 l -0.02997,1.42271 -1.235124,0.55021 c -3.16832,1.41139 -6.446148,2.27316 -9.972921,2.62196 -1.017624,0.10064 -4.378637,0.12581 -5.278172,0.0395 z m 19.223105,-14.73408 c -0.0021,-8.41454 0.0021,-8.36022 -0.75469,-9.89689 -1.058122,-2.14866 -3.249196,-3.49511 -5.68757,-3.49511 -1.733191,0 -3.284382,0.63778 -4.520325,1.85857 -0.777752,0.76822 -1.173923,1.3805 -1.591604,2.4598 l -0.275386,0.71161 -0.05525,6.28884 -0.05525,6.28883 -0.309267,0.6702 c -1.348646,2.92259 -5.48885,2.95025 -6.909228,0.0462 -0.256968,-0.52539 -0.303224,-0.76726 -0.33745,-1.76449 l -0.03966,-1.15564 h 1.247005 1.247005 v 0.75785 c 0,0.83627 0.153931,1.24408 0.60305,1.59769 0.530746,0.41787 1.530774,0.18384 1.887193,-0.44164 0.110167,-0.19333 0.153625,-1.61479 0.198195,-6.48271 0.05649,-6.17001 0.0597,-6.24294 0.307684,-6.9876 1.361036,-4.08701 4.999556,-6.6186 9.140311,-6.35958 3.431367,0.21464 6.410253,2.32891 7.71523,5.47591 0.649637,1.56663 0.66213,1.74336 0.66213,9.3665 v 6.93312 l -0.993469,0.6893 c -0.546408,0.37912 -1.102213,0.746 -1.235123,0.8153 l -0.241655,0.126 -0.0019,-7.50201 z m -46.718032,-2.70702 v -7.19143 l 0.993469,-0.17523 c 0.546408,-0.0964 1.100883,-0.19875 1.232167,-0.22748 0.236897,-0.0519 0.238922,-0.0407 0.268505,1.48096 l 0.02981,1.5332 0.336489,-0.59126 c 1.02394,-1.79921 2.163061,-2.47253 4.183002,-2.47253 h 1.098061 l -0.537132,1.27817 -0.537133,1.27817 -0.660613,0.0436 c -1.294401,0.0854 -2.531649,0.9418 -3.121393,2.16048 -0.561445,1.16019 -0.600178,1.53085 -0.600178,5.74355 0,2.14567 -0.03625,3.90154 -0.08055,3.90193 -0.0443,4.3e-4 -0.636357,0.0968 -1.315675,0.21429 -0.679318,0.11747 -1.247207,0.2139 -1.261975,0.21429 -0.01477,4.3e-4 -0.02685,-3.23543 -0.02685,-7.19072 z m 55.860706,7.08256 c -0.78707,-0.16708 -1.807124,-0.71025 -2.415667,-1.28631 -1.098556,-1.03994 -1.619584,-2.45366 -1.550472,-4.20696 0.03679,-0.93325 0.07945,-1.11174 0.440563,-1.84307 0.955177,-1.93446 2.878475,-2.96093 5.338434,-2.84914 1.25315,0.057 2.022836,0.29 2.677617,0.81074 0.716898,0.57014 0.694383,0.58523 0.623662,-0.41783 -0.143777,-2.03922 -0.718693,-2.46194 -3.346281,-2.46042 -1.640629,9.7e-4 -2.558151,0.12978 -3.427728,0.48127 l -0.627918,0.25381 0.06169,-0.23357 c 0.03393,-0.12846 0.190202,-0.72683 0.347272,-1.32971 l 0.28558,-1.09614 0.549152,-0.1189 c 3.159182,-0.68407 5.593351,-0.51798 6.991594,0.47705 0.654143,0.46551 1.182233,1.21606 1.476671,2.09873 0.226068,0.6777 0.235858,0.89431 0.272931,6.03864 l 0.03845,5.33571 -1.00059,0.17968 c -0.550324,0.0988 -1.083318,0.20386 -1.184433,0.23342 -0.162652,0.0476 -0.187414,-0.0608 -0.214804,-0.93951 l -0.03096,-0.99325 -0.300678,0.45555 c -0.348536,0.52806 -1.080849,1.02716 -1.847363,1.25906 -0.65688,0.19873 -2.513768,0.28764 -3.156726,0.15115 z m 3.510455,-2.68112 c 1.032057,-0.45483 1.580955,-1.39856 1.566081,-2.69259 -0.0166,-1.4442 -1.148358,-2.42888 -2.932348,-2.55127 -1.54583,-0.10606 -2.766488,0.46258 -3.28939,1.53234 -0.256358,0.52447 -0.284592,0.68583 -0.239885,1.37106 0.08135,1.24685 0.608701,2.02825 1.652014,2.44786 0.756459,0.30424 2.435631,0.24863 3.243528,-0.1074 z m 8.077338,-4.41056 c 0,-3.96256 0.0362,-7.2048 0.0806,-7.20499 0.10506,-4.3e-4 1.94215,-0.30978 2.25544,-0.37977 l 0.24165,-0.054 v 7.20464 c 0,3.96256 -0.0362,7.2048 -0.0806,7.20499 -0.10506,4.3e-4 -1.94216,0.30978 -2.25544,0.37977 l -0.24165,0.054 z m 24.541376,7.13327 c -0.11814,-0.0233 -0.48062,-0.0951 -0.80552,-0.15959 -0.83331,-0.16541 -2.20032,-0.83203 -2.9238,-1.42579 -0.65438,-0.53705 -1.38375,-1.48695 -1.83974,-2.39599 -0.70977,-1.41498 -1.00062,-3.62698 -0.67156,-5.10742 0.72785,-3.27461 3.61611,-5.66883 6.84873,-5.67727 1.88987,-0.005 3.34298,0.57017 4.61094,1.82488 0.67596,0.66889 1.66017,1.92082 1.57111,1.99847 -0.0131,0.0114 -2.19872,1.40722 -4.85692,3.10178 -2.6582,1.69456 -4.84807,3.14788 -4.86638,3.2296 -0.0569,0.25388 1.2717,1.49947 1.95163,1.82974 0.74292,0.36086 1.92504,0.47448 2.87746,0.27658 0.9839,-0.20445 2.34718,-0.93958 3.95267,-2.13143 0.16534,-0.12274 0.20282,-0.021 0.4158,1.12877 0.12874,0.69501 0.23392,1.32089 0.23374,1.39083 -4.3e-4,0.15538 -1.55611,1.10752 -2.53681,1.5526 -1.11041,0.50395 -2.94294,0.76497 -3.96135,0.56424 z m -0.30472,-9.13542 c 1.82159,-1.15918 3.36031,-2.15449 3.41938,-2.2118 0.1602,-0.15544 -0.44162,-0.60039 -1.06666,-0.78865 -0.74858,-0.22545 -1.9404,-0.20239 -2.76835,0.0536 -1.28004,0.39573 -2.38215,1.44269 -2.83113,2.68945 -0.21094,0.58576 -0.34497,2.36503 -0.17815,2.36503 0.0621,0 1.60332,-0.94842 3.42491,-2.1076 z m 9.7024,2.01279 v -7.1899 l 1.04717,-0.18219 c 0.57594,-0.10021 1.13175,-0.20593 1.23512,-0.23494 0.16906,-0.0474 0.18796,0.0452 0.18796,0.92201 0,0.91045 0.11497,1.24393 0.26536,0.76966 0.10597,-0.3342 0.99399,-1.08281 1.64907,-1.39018 0.54768,-0.25699 0.72937,-0.28542 1.79094,-0.28028 1.95066,0.009 2.6842,0.39222 3.55515,1.85508 0.0109,0.0183 0.26032,-0.20747 0.55429,-0.5017 0.99821,-0.99915 2.38644,-1.47781 3.99941,-1.37901 2.06092,0.12624 3.32069,0.95441 3.99054,2.62334 0.2481,0.61815 0.24968,0.65258 0.28368,6.18481 0.0188,3.05976 -0.005,5.56352 -0.0525,5.56391 -0.0477,4.3e-4 -0.64252,0.0968 -1.32184,0.21429 -0.67932,0.11747 -1.24721,0.2139 -1.26197,0.21429 -0.0148,4.3e-4 -0.0269,-2.40036 -0.0269,-5.33501 0,-3.87005 -0.0358,-5.45524 -0.13023,-5.77083 -0.0716,-0.23931 -0.30121,-0.61426 -0.51016,-0.83322 -0.88503,-0.9274 -2.89434,-0.75065 -3.9456,0.34708 -0.6841,0.71432 -0.67671,0.64706 -0.67671,6.16042 0,2.75125 -0.0362,5.00259 -0.0806,5.00298 -0.0443,4.3e-4 -0.63636,0.0968 -1.31567,0.21429 -0.67932,0.11747 -1.24721,0.2139 -1.26198,0.21429 -0.0148,4.3e-4 -0.0273,-2.43016 -0.0279,-5.40123 l -0.001,-5.40195 -0.25401,-0.54598 c -0.31875,-0.68518 -0.67413,-0.96767 -1.40963,-1.1205 -1.39728,-0.29034 -2.93907,0.46439 -3.45214,1.6899 -0.11448,0.27343 -0.14483,1.39427 -0.14483,5.3482 0,2.75125 -0.0363,5.00259 -0.0806,5.00298 -0.0443,4.3e-4 -0.63636,0.0968 -1.31568,0.21429 -0.67932,0.11747 -1.2472,0.2139 -1.26197,0.21429 -0.0148,4.3e-4 -0.0269,-3.23474 -0.0269,-7.18919 z m 27.54863,7.12263 c -0.11814,-0.0233 -0.48063,-0.0951 -0.80552,-0.15959 -0.83331,-0.16541 -2.20032,-0.83203 -2.9238,-1.42579 -1.05186,-0.86326 -1.97667,-2.37033 -2.3856,-3.88754 -0.2702,-1.00251 -0.32831,-2.64427 -0.12736,-3.59743 0.68342,-3.24145 3.62509,-5.68729 6.85039,-5.69571 1.76496,-0.005 3.24497,0.53858 4.43076,1.62615 0.76983,0.70606 1.84885,2.13104 1.69208,2.23458 -0.051,0.0337 -2.25084,1.43833 -4.88859,3.12149 -2.63776,1.68315 -4.79592,3.12322 -4.79592,3.20016 0,0.27477 1.3522,1.49693 1.99521,1.80334 0.75741,0.36091 1.91681,0.47013 2.87563,0.2709 0.80956,-0.16822 2.28061,-0.91059 3.28661,-1.65859 0.44004,-0.32719 0.81001,-0.58445 0.82214,-0.5717 0.0121,0.0128 0.13313,0.62344 0.26891,1.35708 l 0.24686,1.33388 -0.25023,0.17114 c -0.63372,0.43339 -2.26478,1.32495 -2.77022,1.51424 -0.94907,0.35544 -2.6639,0.53239 -3.52135,0.36339 z m -0.22609,-9.18588 c 1.86694,-1.18694 3.39445,-2.19953 3.39445,-2.25021 0,-0.16104 -0.64228,-0.55719 -1.15258,-0.71091 -0.27092,-0.0816 -0.8423,-0.14839 -1.26972,-0.14839 -1.9218,0 -3.55871,1.07884 -4.24087,2.79504 -0.25999,0.65409 -0.43411,2.47253 -0.23675,2.47253 0.061,0 1.63851,-0.97113 3.50547,-2.15806 z m 9.62377,2.05056 c 0,-3.96143 0.0363,-7.20292 0.0806,-7.20331 0.0443,-4.3e-4 0.63636,-0.0968 1.31568,-0.21429 0.67931,-0.11747 1.2472,-0.2139 1.26197,-0.21429 0.0148,-4.3e-4 0.0294,0.47095 0.0325,1.04743 0.005,1.01549 0.0112,1.03976 0.18496,0.77938 1.21723,-1.82417 4.4368,-2.37622 6.96152,-1.19366 1.27593,0.59763 2.14674,1.72554 2.40609,3.11648 0.12498,0.67022 0.15067,10.65467 0.0274,10.65519 -0.10373,4.3e-4 -1.93956,0.30924 -2.2507,0.37858 l -0.23692,0.0528 -0.0316,-5.2953 c -0.0352,-5.89501 -0.0124,-5.70716 -0.78207,-6.45534 -0.53211,-0.51725 -1.28832,-0.76051 -2.36417,-0.76051 -1.44527,0 -2.62223,0.58399 -3.28513,1.63003 -0.61646,0.97275 -0.63505,1.14858 -0.63505,6.0076 0,2.44299 -0.0362,4.44212 -0.0806,4.44251 -0.0443,4.3e-4 -0.63636,0.0968 -1.31568,0.21429 -0.67931,0.11747 -1.2472,0.2139 -1.26197,0.21429 -0.0148,4e-4 -0.0269,-3.24045 -0.0269,-7.20188 z m 19.54977,7.03772 c -1.66866,-0.46998 -2.75634,-1.71975 -3.00701,-3.45512 -0.0583,-0.4036 -0.10695,-2.46155 -0.10812,-4.57323 l -0.002,-3.83941 -1.06342,-0.0306 -1.06342,-0.0306 0.45136,-1.12877 0.45135,-1.12876 0.61207,-0.0322 0.61206,-0.0322 v -1.69882 -1.69882 l 1.31568,-0.31344 1.31567,-0.31344 0.0292,2.01762 0.0292,2.01763 h 1.82352 1.82351 v 1.18251 1.18252 h -1.82583 -1.82584 l 0.002,4.16568 c 0.002,3.85971 0.0173,4.19871 0.20636,4.61543 0.12708,0.28016 0.33405,0.51707 0.54888,0.62826 0.53034,0.2745 1.58217,0.38454 2.52819,0.26449 0.45756,-0.0581 0.85199,-0.0855 0.8765,-0.061 0.0493,0.0494 -0.37736,2.22222 -0.45084,2.29575 -0.0253,0.0254 -0.64123,0.0655 -1.36861,0.0892 -0.97489,0.0318 -1.47712,-4.3e-4 -1.91064,-0.12257 z m -84.079906,-0.48821 c -0.75133,-0.35422 -1.08367,-0.56432 -1.03005,-0.65116 0.0435,-0.0705 1.05275,-1.53534 2.24268,-3.25516 1.18994,-1.71982 2.19678,-3.18214 2.23742,-3.2496 0.0418,-0.0694 -0.83473,-1.39082 -2.01953,-3.04442 -1.1514,-1.60698 -2.09345,-2.95687 -2.09345,-2.99975 0,-0.0595 1.07556,-0.56561 2.03192,-0.95611 0.0375,-0.0153 0.86434,1.10744 1.83743,2.495 0.9731,1.38755 1.80037,2.52481 1.83839,2.52724 0.038,0.002 0.806112,-1.12032 1.706882,-2.49499 0.90076,-1.37468 1.64534,-2.50987 1.65462,-2.52264 0.028,-0.0386 2.041504,0.7327 2.116584,0.81076 0.0383,0.0399 -0.86592,1.41833 -2.009454,3.06326 l -2.07915,2.99078 2.41767,3.22287 c 1.329714,1.77258 2.440164,3.28157 2.467664,3.3533 0.0305,0.0794 -0.38494,0.34693 -1.06267,0.68431 l -1.11268,0.55388 -2.025544,-2.94696 c -1.11405,-1.62083 -2.058102,-2.91083 -2.097892,-2.86666 -0.0398,0.0442 -0.9059,1.33807 -1.92469,2.87534 -1.01879,1.53728 -1.88263,2.82623 -1.91965,2.86435 -0.037,0.0381 -0.56644,-0.16601 -1.1765,-0.45364 z m -33.957565,-9.03834 c -1.094705,-0.20112 -1.935462,-1.26428 -1.930878,-2.44164 0.003,-0.77374 0.273665,-1.37128 0.841455,-1.85774 0.992565,-0.85038 2.299217,-0.83588 3.289391,0.0365 0.60624,0.53413 0.849182,1.15419 0.787365,2.0096 -0.109625,1.51695 -1.458269,2.53419 -2.987333,2.25327 z m -23.819777,-0.70934 c -0.04245,-0.10347 -0.07715,-0.62351 -0.07711,-1.15564 5.9e-5,-0.81804 0.04315,-1.05886 0.278942,-1.55877 0.350457,-0.74303 0.997857,-1.41238 1.731087,-1.78978 0.461025,-0.23729 0.748979,-0.30043 1.534169,-0.33638 1.231488,-0.0564 1.944828,0.18695 2.775428,0.94677 0.799491,0.73137 1.183189,1.5955 1.191957,2.68441 0.0036,0.44344 -0.03068,0.93929 -0.07611,1.10189 l -0.0826,0.29563 h -1.179377 -1.179376 v -0.8116 c 0,-0.93452 -0.170645,-1.36196 -0.640897,-1.60536 -0.538468,-0.27871 -1.028498,-0.21095 -1.481872,0.20492 -0.395344,0.36263 -0.401731,0.3814 -0.439052,1.29001 l -0.03787,0.92203 H 34.36523 c -0.965732,0 -1.130707,-0.0259 -1.197252,-0.18813 z m 52.446202,-6.97382 c -0.74599,-1.29849 -1.81569,-2.33177 -2.848907,-2.75191 l -0.374885,-0.15244 0.321184,-0.19621 c 1.484148,-0.90663 2.345828,-1.73397 2.825488,-2.71287 0.15356,-0.31339 0.30538,-0.56836 0.33737,-0.56661 0.032,0.002 0.22734,0.30289 0.43409,0.66918 0.48529,0.85977 1.50256,1.88095 2.34985,2.35888 l 0.66903,0.37738 -0.74001,0.44003 c -0.88673,0.52729 -1.95105,1.63201 -2.36858,2.4585 l -0.30336,0.60048 z m -57.732383,-6.92074 v -1.29002 H 47.10677 66.331738 v 1.29002 1.29002 H 47.10677 27.881801 Z m 0,-10.26639 v -6.39634 h 1.235124 1.235123 v 6.39634 6.39634 h -1.235123 -1.235124 z m 12.029031,-2.58004 v -8.976367 h 1.235123 1.235124 v 8.976367 8.97638 h -1.235124 -1.235123 z m 11.921628,0 v -8.976367 h 1.288825 1.288825 v 8.976367 8.97638 H 53.121285 51.83246 Z m 12.029031,2.58004 v -6.39634 h 1.235124 1.235123 v 6.39634 6.39634 h -1.235123 -1.235124 z" id="path179"></path></g></g></svg>
