<svg width="65mm" height="22mm" viewBox="0 0 65 22" version="1.1" id="svg5" xml:space="preserve" xmlns="http://www.w3.org/2000/svg"><g id="layer1"><g id="g166" transform="matrix(.3612 0 0 .29173 -2.353 -7.247)"><path style="fill:#fff;stroke-width:.110745px" d="M25.412 95.046v-1.29H68.91v2.58H25.411Zm2.47-5.16v-1.29h38.45v2.58h-38.45Zm119.377-3.16c-1.482-.47-2.357-1.63-2.357-3.129 0-.885.246-1.516.851-2.187 1.221-1.352 3.509-1.391 4.817-.082.621.622.855 1.178.907 2.162.043.81.025.9-.315 1.555-.746 1.435-2.412 2.152-3.903 1.68zm1.857-1.13c1.387-.714 1.718-2.331.707-3.452-1.358-1.503-3.799-.556-3.799 1.474 0 1.262.907 2.168 2.18 2.179.302.003.677-.08.912-.201zm3.46-1.872v-3.162l.532-.106.532-.105.032.649.031.649.303-.459c.355-.538.982-.866 1.665-.87.43-.001.458.015.391.24-.174.583-.434.885-.816.947-.515.084-.992.444-1.234.932-.17.34-.207.71-.235 2.309-.037 2.102.03 1.93-.799 2.07l-.402.068zm6.28 3.038c-.451-.132-.992-.69-1.122-1.16-.06-.216-.11-1.227-.11-2.247v-1.854h-.43c-.482 0-.496-.03-.267-.578.125-.3.224-.39.43-.39.258 0 .266-.023.266-.747v-.748l.403-.112c.775-.215.779-.21.779.747v.86H160.416v.968H158.805v1.972c0 2.37.006 2.383 1.142 2.38l.69-.003-.065.325c-.143.716-.127.702-.78.691-.337-.005-.758-.052-.937-.104zm4.388-.079c-.724-.259-1.273-.687-1.655-1.289-.453-.715-.561-1.142-.505-2 .08-1.248.657-2.116 1.767-2.663 1.695-.835 3.694-.171 4.513 1.5.417.85.42 1.972.01 2.764-.781 1.5-2.59 2.24-4.13 1.688zm2.122-1.13c.295-.154.61-.449.833-.78.335-.495.357-.58.319-1.252-.033-.588-.1-.805-.36-1.173a2.182 2.182 0 0 0-3.419-.204c-.608.674-.758 1.54-.401 2.313.55 1.189 1.911 1.681 3.028 1.096zm4.152 1.175c-.425-.158-1.154-.666-1.154-.805 0-.045.146-.223.326-.395.233-.224.366-.283.468-.208.549.404.728.497 1.047.548 1.005.16 1.636-.803.947-1.446-.12-.11-.517-.29-.885-.398-1.467-.43-1.827-.766-1.827-1.706 0-1.181.8-1.948 2.018-1.936.66.007 1.177.19 1.655.59l.259.215-.36.371-.36.372-.23-.217c-.5-.47-1.52-.463-1.775.013-.323.605.145 1.133 1.22 1.373 1.197.268 1.727.896 1.658 1.966-.046.724-.388 1.246-1.014 1.547-.526.253-1.476.308-1.993.116zm5.149.039c-.507-.153-1.055-.648-1.28-1.157-.313-.708-.238-1.789.16-2.31.466-.613.963-.86 1.838-.911.656-.04.838-.008 1.276.217l.51.263v-.41c0-.276-.084-.506-.257-.708-.23-.268-.338-.302-1.047-.334-.46-.02-1.029.029-1.36.117l-.57.153.074-.335c.166-.765.184-.78 1.088-.921 1.39-.217 2.308.036 2.87.788.207.277.224.467.254 2.87.026 2.041.003 2.583-.107 2.618a5.55 5.55 0 0 1-.489.103c-.34.059-.349.05-.349-.323v-.383l-.325.274c-.537.452-1.52.619-2.286.389zm1.863-1.13c.563-.29.799-1.071.503-1.664-.422-.845-2.206-.838-2.66.01-.286.536.045 1.49.596 1.716.357.146 1.226.112 1.56-.061zm-34.695-2.577v-3.71h-2.138l.18-.483.179-.484h4.894v.968H143.017v7.285l-.242.065a2.848 2.848 0 0 1-.59.066l-.35.002zm-97.198 2.885c-5.983-.573-11.132-2.464-15.708-5.768l-1.047-.756v-8.034c0-8.79.003-8.848.634-10.48.45-1.167 1.078-2.101 2.052-3.057 4.348-4.262 11.527-3.044 14.258 2.42.617 1.233.8 2.014.858 3.681l.054 1.532H43.24v-1.052c0-.587-.072-1.336-.162-1.693-.84-3.307-4.057-5.424-7.356-4.842-2 .353-3.738 1.64-4.613 3.418-.754 1.532-.753 1.514-.755 9.604l-.002 7.209.993.652c3.615 2.373 7.325 3.783 11.734 4.46 1.98.303 5.668.328 7.68.052a29.01 29.01 0 0 0 8.686-2.603c.909-.44 1.672-.8 1.695-.8.023 0 .03.64.013 1.423l-.03 1.423-1.235.55c-3.169 1.411-6.447 2.273-9.973 2.622-1.018.1-4.379.126-5.279.04zM63.86 71.211c-.002-8.414.002-8.36-.755-9.897-1.058-2.148-3.25-3.495-5.688-3.495-1.733 0-3.284.638-4.52 1.859-.778.768-1.174 1.38-1.592 2.46l-.275.711-.055 6.29-.055 6.288-.31.67c-1.348 2.923-5.489 2.95-6.909.046-.257-.525-.303-.767-.337-1.764l-.04-1.156h2.494v.758c0 .836.154 1.244.603 1.598.53.418 1.53.184 1.887-.442.11-.193.154-1.615.198-6.483.057-6.17.06-6.243.308-6.987 1.361-4.087 5-6.619 9.14-6.36 3.432.215 6.41 2.33 7.716 5.476.65 1.567.662 1.744.662 9.367v6.933l-.994.69c-.546.378-1.102.745-1.235.814l-.241.126-.002-7.502zm-46.718-2.707v-7.191l.993-.175c.546-.097 1.1-.2 1.232-.228.237-.052.24-.04.269 1.481l.03 1.533.336-.59c1.024-1.8 2.163-2.473 4.183-2.473h1.098l-.537 1.278-.537 1.278-.66.043c-1.295.086-2.532.942-3.122 2.16-.562 1.161-.6 1.532-.6 5.744 0 2.146-.037 3.902-.08 3.902-.045 0-.637.097-1.317.215-.679.117-1.247.214-1.262.214-.014 0-.026-3.235-.026-7.19zm55.86 7.083c-.787-.167-1.807-.71-2.415-1.286-1.099-1.04-1.62-2.454-1.55-4.207.036-.934.079-1.112.44-1.843.955-1.935 2.878-2.961 5.338-2.85 1.253.057 2.023.29 2.678.811.717.57.694.585.623-.418-.143-2.039-.718-2.462-3.346-2.46-1.64 0-2.558.13-3.428.481l-.627.254.061-.234.347-1.33.286-1.095.55-.12c3.158-.683 5.593-.517 6.99.478.655.465 1.183 1.216 1.477 2.098.227.678.236.895.273 6.039l.039 5.336-1 .18c-.551.098-1.084.203-1.185.233-.163.047-.188-.06-.215-.94l-.03-.993-.302.456c-.348.528-1.08 1.027-1.847 1.259-.657.198-2.514.287-3.157.15zm3.51-2.681c1.033-.455 1.582-1.399 1.567-2.693-.017-1.444-1.149-2.429-2.933-2.551-1.545-.106-2.766.462-3.289 1.532-.256.525-.284.686-.24 1.371.082 1.247.609 2.029 1.652 2.448.757.304 2.436.249 3.244-.107zm8.078-4.41c0-3.963.036-7.206.08-7.206.106 0 1.943-.31 2.256-.38l.242-.054v7.205c0 3.963-.036 7.205-.08 7.205-.106 0-1.943.31-2.256.38l-.242.054zm24.541 7.132-.805-.16c-.833-.165-2.2-.831-2.924-1.425-.654-.537-1.384-1.487-1.84-2.396-.71-1.415-1-3.627-.671-5.107.728-3.275 3.616-5.67 6.849-5.678 1.89-.005 3.343.57 4.61 1.825.676.67 1.66 1.921 1.572 1.999-.013.011-2.2 1.407-4.857 3.102-2.658 1.694-4.848 3.147-4.867 3.23-.057.253 1.272 1.499 1.952 1.829.743.36 1.925.474 2.877.276.984-.204 2.348-.94 3.953-2.131.165-.123.203-.021.416 1.129.129.695.234 1.32.234 1.39 0 .156-1.556 1.108-2.537 1.553-1.11.504-2.943.765-3.962.564zm-.304-9.135c1.821-1.16 3.36-2.154 3.42-2.212.16-.155-.442-.6-1.068-.788-.748-.226-1.94-.203-2.768.053-1.28.396-2.382 1.443-2.831 2.69-.211.585-.345 2.365-.178 2.365.062 0 1.603-.949 3.425-2.108zm9.702 2.013v-7.19l1.047-.182c.576-.1 1.132-.206 1.235-.235.17-.048.188.045.188.922 0 .91.115 1.244.266.77.106-.335.994-1.083 1.649-1.39.548-.258.73-.286 1.79-.281 1.951.009 2.685.392 3.556 1.855.01.018.26-.207.554-.502.998-.999 2.387-1.477 4-1.379 2.06.127 3.32.955 3.99 2.624.248.618.25.652.284 6.185.019 3.06-.005 5.563-.053 5.563-.047 0-.642.097-1.322.215-.679.117-1.247.214-1.261.214-.015 0-.027-2.4-.027-5.335 0-3.87-.036-5.455-.13-5.77-.072-.24-.302-.615-.51-.834-.886-.927-2.895-.75-3.946.347-.684.714-.677.647-.677 6.16 0 2.752-.036 5.003-.08 5.003-.045 0-.637.097-1.316.215-.68.117-1.248.214-1.262.214-.015 0-.028-2.43-.028-5.401l-.001-5.402-.254-.546c-.319-.685-.674-.968-1.41-1.12-1.397-.291-2.939.464-3.452 1.69-.114.273-.145 1.394-.145 5.347 0 2.752-.036 5.003-.08 5.003-.045 0-.637.097-1.316.215-.68.117-1.247.214-1.262.214-.015 0-.027-3.235-.027-7.19zm27.549 7.122-.806-.16c-.833-.165-2.2-.831-2.924-1.425-1.051-.863-1.976-2.37-2.385-3.887-.27-1.003-.328-2.645-.128-3.598.684-3.241 3.626-5.687 6.85-5.696 1.766-.005 3.246.539 4.432 1.627.77.706 1.848 2.13 1.692 2.234-.051.034-2.251 1.438-4.889 3.122-2.638 1.683-4.796 3.123-4.796 3.2 0 .275 1.352 1.497 1.995 1.803.758.361 1.917.47 2.876.271.81-.168 2.28-.91 3.287-1.659.44-.327.81-.584.822-.571.012.013.133.623.269 1.357l.247 1.334-.25.17c-.634.434-2.265 1.326-2.77 1.515-.95.355-2.665.532-3.522.363zm-.226-9.185c1.867-1.187 3.394-2.2 3.394-2.25 0-.162-.642-.558-1.152-.712-.271-.081-.843-.148-1.27-.148-1.922 0-3.559 1.079-4.241 2.795-.26.654-.434 2.473-.237 2.473.061 0 1.639-.972 3.506-2.158zm9.623 2.05c0-3.961.037-7.203.081-7.203.044 0 .636-.097 1.316-.214.679-.118 1.247-.214 1.262-.215.015 0 .03.471.032 1.048.005 1.015.011 1.04.185.779 1.217-1.824 4.437-2.376 6.962-1.194a4.249 4.249 0 0 1 2.406 3.117c.125.67.15 10.655.027 10.655-.104 0-1.94.31-2.25.379l-.237.052-.032-5.295c-.035-5.895-.012-5.707-.782-6.455-.532-.517-1.288-.76-2.364-.76-1.446 0-2.623.583-3.285 1.63-.617.972-.635 1.148-.635 6.007 0 2.443-.037 4.442-.081 4.442-.044 0-.636.097-1.316.215-.68.117-1.247.214-1.262.214-.015 0-.027-3.24-.027-7.202zm19.55 7.038c-1.668-.47-2.756-1.72-3.007-3.455-.058-.404-.107-2.462-.108-4.574l-.002-3.839-1.063-.03-1.064-.031.452-1.129.451-1.129.612-.032.612-.032v-3.398l1.316-.313 1.315-.314.03 2.018.029 2.018H178.245v2.365h-3.652l.002 4.165c.002 3.86.018 4.2.207 4.616.127.28.334.517.548.628.53.275 1.583.385 2.529.265.457-.059.852-.086.876-.061.05.049-.377 2.222-.45 2.295-.026.026-.642.066-1.37.09-.974.031-1.476 0-1.91-.123zm-84.08-.488c-.751-.355-1.083-.565-1.03-.652a534.66 534.66 0 0 1 2.243-3.255c1.19-1.72 2.197-3.182 2.237-3.25.042-.069-.834-1.39-2.02-3.044-1.15-1.607-2.093-2.957-2.093-3 0-.059 1.076-.565 2.032-.956.038-.015.865 1.108 1.838 2.495.973 1.388 1.8 2.525 1.838 2.528.038.002.806-1.12 1.707-2.495.9-1.375 1.645-2.51 1.655-2.523.028-.039 2.041.733 2.116.81.039.04-.866 1.42-2.01 3.064l-2.078 2.99 2.417 3.224c1.33 1.772 2.44 3.281 2.468 3.353.03.08-.385.347-1.063.684l-1.112.554-2.026-2.947c-1.114-1.62-2.058-2.91-2.098-2.866-.04.044-.906 1.338-1.925 2.875-1.018 1.537-1.882 2.826-1.92 2.864-.036.038-.566-.166-1.176-.453zm-33.957-9.039c-1.095-.2-1.936-1.264-1.931-2.441.003-.774.274-1.372.841-1.858.993-.85 2.3-.836 3.29.036.606.535.849 1.155.787 2.01-.11 1.517-1.458 2.534-2.987 2.253zm-23.82-.709c-.042-.104-.077-.624-.077-1.156 0-.818.043-1.059.279-1.558a4.004 4.004 0 0 1 1.73-1.79c.462-.238.75-.3 1.535-.337 1.232-.056 1.945.187 2.775.947.8.732 1.184 1.596 1.192 2.685.004.443-.03.939-.076 1.101l-.082.296h-2.359v-.812c0-.934-.17-1.361-.64-1.605-.54-.279-1.03-.21-1.483.205-.395.363-.402.381-.439 1.29l-.038.922h-1.12c-.966 0-1.13-.026-1.197-.188zm52.446-6.974c-.746-1.298-1.816-2.332-2.849-2.752l-.375-.152.322-.196c1.484-.907 2.345-1.734 2.825-2.713.154-.314.305-.569.337-.567.032.002.228.303.435.67.485.859 1.502 1.88 2.35 2.358l.668.378-.74.44c-.886.527-1.95 1.632-2.368 2.458l-.304.6zm-57.732-6.92v-1.29h38.45v2.58h-38.45Zm0-10.267v-6.396h2.47V47.53h-2.47zm12.029-2.58v-8.976h2.47V47.53h-2.47zm11.921 0v-8.976H54.41V47.53h-2.578Zm12.03 2.58v-6.396h2.47V47.53H63.86z" id="path179"/></g></g></svg>